<svg width="85" height="85" viewBox="0 0 85 85" fill="none" xmlns="http://www.w3.org/2000/svg">
<g id="glass" clip-path="url(#clip0_16_205)">
<path id="Vector" d="M69.0625 34.5313C69.0625 42.1514 66.5889 49.1904 62.4219 54.9014L83.4395 75.9356C85.5146 78.0107 85.5146 81.3809 83.4395 83.4561C81.3643 85.5313 77.9941 85.5313 75.9189 83.4561L54.9014 62.4219C49.1904 66.6055 42.1514 69.0625 34.5312 69.0625C15.4561 69.0625 0 53.6065 0 34.5313C0 15.4561 15.4561 0 34.5312 0C53.6064 0 69.0625 15.4561 69.0625 34.5313ZM34.5312 58.4375C37.6707 58.4375 40.7793 57.8192 43.6798 56.6178C46.5802 55.4164 49.2156 53.6554 51.4355 51.4355C53.6554 49.2156 55.4163 46.5802 56.6177 43.6798C57.8191 40.7793 58.4375 37.6707 58.4375 34.5313C58.4375 31.3918 57.8191 28.2832 56.6177 25.3827C55.4163 22.4823 53.6554 19.8469 51.4355 17.627C49.2156 15.4071 46.5802 13.6462 43.6798 12.4448C40.7793 11.2434 37.6707 10.625 34.5312 10.625C31.3918 10.625 28.2832 11.2434 25.3827 12.4448C22.4823 13.6462 19.8469 15.4071 17.627 17.627C15.4071 19.8469 13.6462 22.4823 12.4448 25.3827C11.2434 28.2832 10.625 31.3918 10.625 34.5313C10.625 37.6707 11.2434 40.7793 12.4448 43.6798C13.6462 46.5802 15.4071 49.2156 17.627 51.4355C19.8469 53.6554 22.4823 55.4164 25.3827 56.6178C28.2832 57.8192 31.3918 58.4375 34.5312 58.4375Z" fill="white"/>
</g>
<defs>
<clipPath id="clip0_16_205">
<rect width="85" height="85" fill="white"/>
</clipPath>
</defs>
</svg>
