<svg width="97" height="87" viewBox="0 0 97 87" fill="none" xmlns="http://www.w3.org/2000/svg">
<path id="house" d="M96.9666 42.916C96.9666 45.9395 94.4405 48.3078 91.5777 48.3078H86.1888L86.3067 75.2164C86.3067 75.6699 86.273 76.1234 86.2225 76.577V79.298C86.2225 83.0102 83.2081 86.0168 79.4864 86.0168H76.7919C76.6067 86.0168 76.4214 86.0168 76.2362 86C76.0004 86.0168 75.7647 86.0168 75.5289 86.0168L70.0558 86H66.0141C62.2924 86 59.278 82.9934 59.278 79.2812V75.25V64.5C59.278 61.527 56.8699 59.125 53.8891 59.125H43.1114C40.1306 59.125 37.7225 61.527 37.7225 64.5V75.25V79.2812C37.7225 82.9934 34.7081 86 30.9864 86H26.9447H21.5726C21.32 86 21.0674 85.9832 20.8148 85.9664C20.6127 85.9832 20.4107 86 20.2086 86H17.5141C13.7924 86 10.778 82.9934 10.778 79.2812V60.4688C10.778 60.3176 10.778 60.1496 10.7949 59.9984V48.291H5.40598C2.37473 48.291 0.0170898 45.9395 0.0170898 42.8992C0.0170898 41.3875 0.522298 40.0437 1.70112 38.868L44.8627 1.34375C46.0416 0.167969 47.3888 0 48.5676 0C49.7464 0 51.0936 0.335938 52.1041 1.17578L95.1141 38.8848C96.4614 40.0605 97.135 41.4043 96.9666 42.916Z" fill="white"/>
</svg>
