<svg width="226" height="177" viewBox="0 0 226 177" fill="none" xmlns="http://www.w3.org/2000/svg">
<g id="login_image" clip-path="url(#clip0_7_49)">
<path id="Path 133" d="M205.719 161.582C201.387 166.209 196.423 170.205 190.973 173.45C190.848 173.527 190.721 173.599 190.593 173.673L181.771 165.884C181.863 165.798 181.966 165.701 182.076 165.596C188.65 159.369 221.285 115.833 223.46 105.231C223.31 106.114 225.422 140.751 205.719 161.582Z" fill="#F0F0F0"/>
<path id="Path 134" d="M192.675 174.953C192.508 174.993 192.339 175.03 192.168 175.064L185.549 169.22C185.679 169.175 185.83 169.121 186.003 169.062C188.843 168.059 197.301 165.031 205.718 161.582C214.763 157.874 223.764 153.685 225.7 151.002C225.285 151.625 212.493 170.532 192.675 174.953Z" fill="#F0F0F0"/>
<path id="Vector" d="M205.597 46.3558H204.654V20.5976C204.654 18.6398 204.268 16.7012 203.517 14.8924C202.765 13.0837 201.665 11.4402 200.277 10.0559C198.889 8.67153 197.242 7.57339 195.428 6.82419C193.615 6.07498 191.672 5.68937 189.709 5.68937H135.002C133.039 5.68936 131.096 6.07497 129.282 6.82417C127.469 7.57337 125.822 8.6715 124.434 10.0558C123.046 11.4402 121.945 13.0837 121.194 14.8924C120.443 16.7011 120.057 18.6397 120.057 20.5975V161.909C120.057 163.867 120.443 165.806 121.194 167.614C121.945 169.423 123.046 171.067 124.434 172.451C125.822 173.835 127.469 174.933 129.282 175.683C131.096 176.432 133.039 176.817 135.002 176.817H189.709C191.672 176.817 193.615 176.432 195.428 175.683C197.241 174.933 198.889 173.835 200.277 172.451C201.665 171.067 202.765 169.423 203.516 167.614C204.268 165.806 204.654 163.867 204.654 161.909V64.691H205.597V46.3558Z" fill="#3F3D56"/>
<path id="Vector_2" d="M201.473 20.7V161.806C201.473 163.268 201.184 164.716 200.623 166.067C200.062 167.417 199.24 168.645 198.203 169.678C197.167 170.712 195.936 171.532 194.582 172.091C193.227 172.65 191.776 172.938 190.31 172.937H135.34C133.874 172.937 132.423 172.649 131.069 172.09C129.715 171.531 128.485 170.711 127.449 169.677C126.413 168.643 125.591 167.416 125.03 166.066C124.469 164.715 124.181 163.268 124.181 161.806V20.7C124.181 19.2382 124.469 17.7907 125.03 16.4402C125.591 15.0897 126.413 13.8626 127.449 12.8289C128.485 11.7953 129.715 10.9754 131.069 10.4161C132.423 9.85672 133.874 9.56888 135.34 9.56899H142.011C141.683 10.3722 141.559 11.2433 141.648 12.1058C141.737 12.9683 142.037 13.7957 142.522 14.5152C143.007 15.2348 143.662 15.8244 144.429 16.2323C145.196 16.6402 146.052 16.8538 146.921 16.8544H178.261C179.131 16.8552 179.988 16.6425 180.756 16.235C181.523 15.8275 182.179 15.2377 182.664 14.5178C183.149 13.7978 183.45 12.9698 183.538 12.1067C183.627 11.2437 183.501 10.3721 183.172 9.56899H190.31C191.776 9.56846 193.227 9.85598 194.582 10.4151C195.936 10.9743 197.167 11.7941 198.203 12.8278C199.24 13.8614 200.062 15.0887 200.623 16.4394C201.184 17.7901 201.473 19.2379 201.473 20.7Z" fill="white"/>
<path id="Vector_3" d="M184.373 94.0262H136.056C135.209 94.0253 134.398 93.6895 133.8 93.0925C133.201 92.4956 132.865 91.6862 132.864 90.842V89.2571C132.865 88.4128 133.201 87.6035 133.8 87.0065C134.398 86.4096 135.209 86.0738 136.056 86.0728H184.373C185.22 86.0738 186.031 86.4096 186.63 87.0065C187.228 87.6035 187.565 88.4128 187.566 89.2571V90.842C187.565 91.6862 187.228 92.4956 186.63 93.0925C186.031 93.6895 185.22 94.0253 184.373 94.0262Z" fill="#F0F0F0"/>
<path id="Vector_4" d="M184.373 107.689H136.056C135.209 107.688 134.398 107.352 133.8 106.755C133.201 106.158 132.865 105.349 132.864 104.505V102.92C132.865 102.075 133.201 101.266 133.8 100.669C134.398 100.072 135.209 99.7364 136.056 99.7354H184.373C185.22 99.7364 186.031 100.072 186.63 100.669C187.228 101.266 187.565 102.075 187.566 102.92V104.505C187.565 105.349 187.228 106.158 186.63 106.755C186.031 107.352 185.22 107.688 184.373 107.689Z" fill="#F0F0F0"/>
<path id="Vector_5" d="M186.79 90.9706H138.473C137.584 90.9696 136.732 90.617 136.104 89.9902C135.476 89.3634 135.122 88.5136 135.121 87.6272V86.0422C135.122 85.1558 135.476 84.306 136.104 83.6792C136.732 83.0524 137.584 82.6998 138.473 82.6988H186.79C187.679 82.6998 188.531 83.0524 189.159 83.6792C189.788 84.306 190.141 85.1558 190.142 86.0422V87.6272C190.141 88.5136 189.788 89.3634 189.159 89.9902C188.531 90.617 187.679 90.9696 186.79 90.9706ZM138.473 83.3356C137.753 83.3365 137.064 83.6219 136.555 84.1293C136.046 84.6367 135.76 85.3246 135.76 86.0422V87.6272C135.76 88.3448 136.046 89.0327 136.555 89.5401C137.064 90.0475 137.753 90.333 138.473 90.3338H186.79C187.51 90.333 188.199 90.0475 188.708 89.5401C189.217 89.0327 189.503 88.3448 189.504 87.6272V86.0422C189.503 85.3246 189.217 84.6367 188.708 84.1293C188.199 83.6219 187.51 83.3365 186.79 83.3356H138.473Z" fill="#3F3D56"/>
<path id="Vector_6" d="M186.79 104.633H138.473C137.584 104.632 136.732 104.28 136.104 103.653C135.476 103.026 135.122 102.176 135.121 101.29V99.7048C135.122 98.8184 135.476 97.9686 136.104 97.3418C136.732 96.715 137.584 96.3624 138.473 96.3614H186.79C187.679 96.3624 188.531 96.715 189.159 97.3418C189.788 97.9686 190.141 98.8184 190.142 99.7048V101.29C190.141 102.176 189.788 103.026 189.159 103.653C188.531 104.28 187.679 104.632 186.79 104.633ZM138.473 96.9982C137.753 96.999 137.064 97.2844 136.555 97.7918C136.046 98.2992 135.76 98.9872 135.76 99.7048V101.29C135.76 102.007 136.046 102.695 136.555 103.203C137.064 103.71 137.753 103.996 138.473 103.996H186.79C187.51 103.996 188.199 103.71 188.708 103.203C189.217 102.695 189.503 102.007 189.504 101.29V99.7048C189.503 98.9872 189.217 98.2992 188.708 97.7918C188.199 97.2844 187.51 96.999 186.79 96.9982H138.473Z" fill="#3F3D56"/>
<path id="Vector_7" d="M201.473 20.7V51.3925C196.584 52.6756 191.465 52.8228 186.51 51.8228C181.555 50.8228 176.896 48.7023 172.892 45.6244C168.887 42.5466 165.644 38.5933 163.411 34.0689C161.178 29.5445 160.016 24.5695 160.013 19.5266C160.013 18.6265 160.049 17.7357 160.122 16.8544H178.261C179.131 16.8552 179.988 16.6425 180.756 16.235C181.523 15.8275 182.179 15.2377 182.664 14.5178C183.149 13.7978 183.45 12.9698 183.538 12.1067C183.627 11.2437 183.501 10.3721 183.172 9.56899H190.31C191.776 9.56846 193.227 9.85598 194.582 10.4151C195.936 10.9743 197.167 11.7941 198.203 12.8278C199.24 13.8614 200.062 15.0887 200.623 16.4394C201.184 17.7901 201.473 19.2379 201.473 20.7Z" fill="#F0F0F0"/>
<path id="Vector_8" d="M151.957 171.02C151.957 171.667 151.932 172.306 151.88 172.937H135.34C133.874 172.937 132.423 172.649 131.069 172.09C129.715 171.531 128.485 170.711 127.449 169.677C126.413 168.643 125.591 167.416 125.03 166.066C124.469 164.715 124.181 163.268 124.181 161.806V146.713C127.648 146.263 131.172 146.556 134.516 147.571C137.861 148.586 140.951 150.301 143.579 152.601C146.207 154.901 148.314 157.734 149.758 160.91C151.203 164.086 151.952 167.533 151.957 171.02Z" fill="#16B3B9"/>
<path id="Vector_9" d="M18.5529 144.537C19.0176 144.741 19.5445 144.753 20.0179 144.57C20.4913 144.387 20.8726 144.024 21.0781 143.561L35.9786 109.874C36.3196 109.103 36.4238 108.248 36.278 107.418C36.1322 106.588 35.7429 105.82 35.1594 105.211C34.5759 104.602 33.8244 104.179 32.9999 103.995C32.1754 103.812 31.3149 103.877 30.5273 104.182C29.6174 104.528 28.856 105.179 28.3726 106.022C28.2957 106.156 28.226 106.293 28.1637 106.434L13.2632 140.121C13.1617 140.351 13.1064 140.598 13.1007 140.849C13.0949 141.099 13.1388 141.349 13.2297 141.583C13.3206 141.817 13.4569 142.031 13.6306 142.212C13.8044 142.393 14.0122 142.539 14.2424 142.64L18.5529 144.537Z" fill="#16B3B9"/>
<path id="Vector_10" d="M35.3669 123.704L20.6284 120.437L24.2763 110.81C24.8978 108.457 26.344 106.404 28.3527 105.024C30.3614 103.644 32.7996 103.027 35.2249 103.286L35.3669 103.302L35.3669 123.704Z" fill="#2F2E41"/>
<path id="Vector_11" d="M65.1362 145.019C64.7027 145.018 64.2787 144.892 63.9155 144.656C63.5522 144.42 63.2653 144.084 63.0895 143.689L48.1891 110.002C47.7152 108.93 47.6711 107.718 48.066 106.615C48.4608 105.512 49.2645 104.601 50.3117 104.071C51.3589 103.541 52.5699 103.431 53.6957 103.765C54.8215 104.098 55.7763 104.849 56.3638 105.864C56.4464 106.007 56.5213 106.154 56.5881 106.306L71.4885 139.993C71.7277 140.533 71.7418 141.147 71.5275 141.698C71.3133 142.249 70.8884 142.693 70.3462 142.932L65.8896 144.893L65.8873 144.888C65.6464 144.975 65.3923 145.019 65.1362 145.019Z" fill="#16B3B9"/>
<path id="Vector_12" d="M44.525 133.451C44.0172 133.452 43.5304 133.653 43.1714 134.011C42.8123 134.37 42.6103 134.855 42.6098 135.362V174.532C42.6103 175.039 42.8123 175.524 43.1714 175.882C43.5304 176.241 44.0172 176.442 44.525 176.443H49.2364C49.7442 176.442 50.231 176.241 50.5901 175.882C50.9491 175.524 51.1511 175.039 51.1517 174.532V135.362C51.1511 134.855 50.9491 134.37 50.5901 134.011C50.231 133.653 49.7442 133.452 49.2364 133.451H44.525Z" fill="#16B3B9"/>
<path id="Vector_13" d="M35.2065 133.451C34.6988 133.452 34.2119 133.653 33.8529 134.011C33.4938 134.37 33.2919 134.855 33.2913 135.362V174.532C33.2919 175.039 33.4938 175.524 33.8529 175.882C34.2119 176.241 34.6988 176.442 35.2065 176.443H39.918C40.4258 176.442 40.9126 176.241 41.2717 175.882C41.6307 175.524 41.8327 175.039 41.8332 174.532V135.362C41.8327 134.855 41.6307 134.37 41.2717 134.011C40.9126 133.653 40.4258 133.452 39.918 133.451H35.2065Z" fill="#16B3B9"/>
<path id="Vector_14" d="M42.0807 92.4135C51.0718 92.4135 58.3604 85.1428 58.3604 76.174C58.3604 67.2052 51.0718 59.9345 42.0807 59.9345C33.0897 59.9345 25.8011 67.2052 25.8011 76.174C25.8011 85.1428 33.0897 92.4135 42.0807 92.4135Z" fill="#16B3B9"/>
<path id="Vector_15" d="M47.4983 82.9911C48.5536 82.9618 49.8669 82.9253 50.8787 82.188C51.18 81.9595 51.4275 81.668 51.604 81.3339C51.7804 80.9999 51.8815 80.6314 51.9002 80.2543C51.9185 79.9863 51.8744 79.7177 51.7714 79.4695C51.6684 79.2213 51.5092 79.0003 51.3064 78.8236C50.7779 78.3782 50.0062 78.2737 49.1746 78.5175L50.0362 72.2364L49.4037 72.15L48.3908 79.5342L48.919 79.2924C49.5313 79.0122 50.3719 78.8696 50.8943 79.31C51.0225 79.4251 51.1225 79.5681 51.1863 79.7281C51.2501 79.888 51.2761 80.0604 51.2622 80.2319C51.2467 80.5126 51.1708 80.7867 51.0397 81.0355C50.9085 81.2842 50.7252 81.5019 50.5021 81.6737C49.7147 82.2474 48.6679 82.3214 47.4805 82.3545L47.4983 82.9911Z" fill="#2F2E41"/>
<path id="Vector_16" d="M56.6026 72.7781H53.1642V73.415H56.6026V72.7781Z" fill="#2F2E41"/>
<path id="Vector_17" d="M45.7495 72.7781H42.3111V73.415H45.7495V72.7781Z" fill="#2F2E41"/>
<path id="Vector_18" d="M58.2115 145.217L52.3521 102.549C52.2893 102.091 52.0624 101.672 51.7136 101.368C51.3647 101.065 50.9174 100.897 50.4545 100.897H46.0317C46.0501 100.792 46.0597 100.686 46.0604 100.579V98.9868C46.0604 98.4801 45.8586 97.9942 45.4994 97.6359C45.1402 97.2776 44.6531 97.0763 44.1451 97.0763H40.3146C39.8067 97.0763 39.3195 97.2776 38.9603 97.6359C38.6011 97.9942 38.3994 98.4801 38.3994 98.9868V100.579C38.4 100.686 38.4096 100.792 38.428 100.897H34.0052C33.5423 100.897 33.095 101.065 32.7462 101.368C32.3973 101.672 32.1705 102.091 32.1076 102.549L26.2482 145.217C26.2111 145.487 26.2324 145.762 26.3108 146.024C26.3891 146.285 26.5227 146.527 26.7024 146.732C26.8822 146.938 27.104 147.103 27.353 147.215C27.6019 147.328 27.8722 147.387 28.1457 147.387H56.314C56.5875 147.387 56.8578 147.328 57.1067 147.215C57.3557 147.103 57.5775 146.938 57.7573 146.732C57.937 146.527 58.0706 146.285 58.1489 146.024C58.2273 145.762 58.2486 145.487 58.2115 145.217Z" fill="#2F2E41"/>
<path id="Vector_19" d="M49.0928 123.704V103.302L49.2348 103.286C51.6631 103.027 54.104 103.646 56.114 105.03C58.1239 106.413 59.5697 108.47 60.1886 110.827L63.8312 120.437L49.0928 123.704Z" fill="#2F2E41"/>
<path id="Vector_20" d="M41.2609 92.9203L30.0007 88.5605C28.1594 87.8475 26.3078 87.1563 24.4763 86.4189C23.6918 86.1461 22.9691 85.7213 22.3499 85.1687C21.8108 84.5994 21.4434 83.8902 21.2898 83.1222C20.8992 81.4755 20.9698 79.6752 20.9977 77.9948C21.0193 76.1565 21.1709 74.322 21.4515 72.505C21.9432 69.0906 23.098 65.8046 24.8512 62.8313C28.009 57.6628 33.4498 53.7742 39.7081 54.0845C42.6054 54.2282 45.5195 55.2653 47.6722 57.2414C47.8967 57.5091 48.1486 57.7527 48.4239 57.9682C48.6152 58.0397 48.8234 58.0537 49.0226 58.0083C49.2853 57.9914 49.5482 57.9785 49.8114 57.9697C50.7244 57.9312 51.639 57.9695 52.5456 58.0841C54.1977 58.2621 55.7635 58.9107 57.0561 59.9523C58.1319 60.8755 59.0072 62.1787 59.0973 63.6269C59.1408 64.2917 59.0306 64.9576 58.7752 65.5732C58.5198 66.1888 58.1261 66.7377 57.6244 67.1775C56.281 68.3069 54.3642 67.9099 52.7528 67.8247L46.8494 67.5128L43.8584 67.3547C43.2425 67.3221 43.2443 68.2775 43.8584 68.31L51.8082 68.7301C53.0858 68.7976 54.4024 68.9631 55.681 68.8867C56.6634 68.8423 57.6015 68.4658 58.3411 67.8192C59.0165 67.2003 59.5196 66.4173 59.8013 65.5467C60.0831 64.6761 60.1339 63.7475 59.9488 62.8515C59.5389 60.8971 58.0808 59.2805 56.3715 58.3187C54.0457 57.01 51.268 56.8847 48.6656 57.0781L49.0041 57.218C46.0603 54.0662 41.5511 52.7355 37.3178 53.2012C32.8482 53.6929 28.8728 56.1803 26.0165 59.5816C22.8319 63.3738 21.0966 68.1024 20.4219 72.9648C20.0708 75.59 19.9552 78.2413 20.0765 80.887C20.0715 82.0538 20.2716 83.2125 20.6678 84.3104C21.1198 85.3789 21.937 86.2528 22.9741 86.7769C24.1631 87.3495 25.3855 87.8504 26.6347 88.2769L30.7833 89.8832L38.9321 93.0383L41.0064 93.8414C41.5812 94.064 41.8302 93.1407 41.2609 92.9203Z" fill="#2F2E41"/>
<path id="Vector_21" d="M23.5561 60.4578C22.5776 60.4578 21.621 60.1684 20.8073 59.626C19.9937 59.0837 19.3595 58.3129 18.985 57.411C18.6105 56.5092 18.5126 55.5168 18.7035 54.5594C18.8944 53.602 19.3656 52.7226 20.0576 52.0324C20.7495 51.3421 21.6311 50.872 22.5909 50.6816C23.5507 50.4912 24.5455 50.5889 25.4496 50.9625C26.3536 51.336 27.1264 51.9686 27.67 52.7803C28.2137 53.5919 28.5039 54.5461 28.5039 55.5223C28.5024 56.8308 27.9807 58.0853 27.0531 59.0106C26.1255 59.9359 24.8679 60.4564 23.5561 60.4578ZM23.5561 51.542C22.767 51.542 21.9955 51.7755 21.3393 52.2128C20.6832 52.6502 20.1718 53.2718 19.8698 53.9991C19.5678 54.7264 19.4887 55.5267 19.6427 56.2988C19.7967 57.0709 20.1767 57.7801 20.7347 58.3368C21.2927 58.8934 22.0037 59.2725 22.7777 59.4261C23.5517 59.5797 24.354 59.5008 25.0831 59.1996C25.8122 58.8983 26.4354 58.3882 26.8738 57.7336C27.3122 57.0791 27.5463 56.3095 27.5463 55.5223C27.5451 54.467 27.1243 53.4553 26.3763 52.7091C25.6282 51.9629 24.614 51.5432 23.5561 51.542Z" fill="#2F2E41"/>
<path id="Vector_22" d="M106.264 91.0438L95.5554 82.8734L87.3647 93.5561L98.0738 101.726L106.264 91.0438Z" fill="#F0F0F0"/>
<path id="Vector_23" d="M45.7411 18.1078C47.4332 18.1065 49.102 18.5004 50.614 19.258C52.1261 20.0157 53.4392 21.116 54.4483 22.4709L60.7016 14.3149L41.9388 0L27.5886 18.7165L35.6753 24.8862C36.4845 22.8841 37.8753 21.169 39.6689 19.9612C41.4625 18.7534 43.5771 18.1079 45.7411 18.1078Z" fill="#F0F0F0"/>
<path id="Vector_24" d="M225.681 177H0.319209C0.23455 177 0.153357 176.966 0.0934939 176.907C0.0336306 176.847 0 176.766 0 176.682C0 176.597 0.0336306 176.516 0.0934939 176.456C0.153357 176.397 0.23455 176.363 0.319209 176.363H225.681C225.765 176.363 225.847 176.397 225.907 176.456C225.966 176.516 226 176.597 226 176.682C226 176.766 225.966 176.847 225.907 176.907C225.847 176.966 225.765 177 225.681 177Z" fill="#3F3D56"/>
<path id="Vector_25" d="M170.677 124.164H147.738C146.892 124.163 146.08 123.827 145.482 123.23C144.883 122.634 144.547 121.824 144.546 120.98V119.395C144.547 118.551 144.883 117.741 145.482 117.144C146.08 116.548 146.892 116.212 147.738 116.211H170.677C171.523 116.212 172.335 116.548 172.933 117.144C173.532 117.741 173.868 118.551 173.869 119.395V120.98C173.868 121.824 173.532 122.634 172.933 123.23C172.335 123.827 171.523 124.163 170.677 124.164Z" fill="#16B3B9"/>
<path id="Vector_26" d="M173.094 121.109H150.155C149.266 121.108 148.414 120.755 147.786 120.128C147.158 119.502 146.804 118.652 146.803 117.765V116.18C146.804 115.294 147.158 114.444 147.786 113.817C148.414 113.19 149.266 112.838 150.155 112.837H173.094C173.983 112.838 174.835 113.19 175.463 113.817C176.091 114.444 176.445 115.294 176.446 116.18V117.765C176.445 118.652 176.091 119.502 175.463 120.128C174.835 120.755 173.983 121.108 173.094 121.109ZM150.155 113.474C149.436 113.475 148.746 113.76 148.237 114.267C147.729 114.775 147.443 115.463 147.442 116.18V117.765C147.443 118.483 147.729 119.171 148.237 119.678C148.746 120.186 149.436 120.471 150.155 120.472H173.094C173.813 120.471 174.503 120.186 175.012 119.678C175.52 119.171 175.807 118.483 175.807 117.765V116.18C175.807 115.463 175.52 114.775 175.012 114.267C174.503 113.76 173.813 113.475 173.094 113.474H150.155Z" fill="#3F3D56"/>
</g>
<defs>
<clipPath id="clip0_7_49">
<rect width="226" height="177" fill="white"/>
</clipPath>
</defs>
</svg>
