<svg width="190" height="191" viewBox="0 0 190 191" fill="none" xmlns="http://www.w3.org/2000/svg">
<g id="undraw_access-account_aydp 1" clip-path="url(#clip0_99_571)">
<g id="Group 64">
<g id="Group 63">
<path id="Path 1" d="M34.7658 170.041L33.6121 165.482C31.5662 164.613 29.4731 163.861 27.3426 163.228L27.1969 165.347L26.6064 163.013C23.9643 162.256 22.1667 161.924 22.1667 161.924C22.1667 161.924 24.5945 171.172 29.6875 178.243L35.6213 179.287L31.0115 179.953C31.6521 180.725 32.3405 181.456 33.0727 182.142C40.4806 189.03 48.7319 192.19 51.5022 189.2C54.2725 186.209 50.5128 178.203 43.1047 171.315C40.8089 169.18 37.9232 167.466 35.0352 166.117L34.7658 170.041Z" fill="#F2F2F2"/>
<path id="Path 2" d="M45.7394 165.09L47.1039 160.59C45.8008 158.787 44.3973 157.059 42.8999 155.414L41.6821 157.153L42.3808 154.849C40.5091 152.834 39.1421 151.618 39.1421 151.618C39.1421 151.618 36.4484 160.792 37.1587 169.482L41.6995 173.447L37.4089 171.63C37.559 172.623 37.7714 173.606 38.0446 174.572C40.8318 184.304 46.2645 191.282 50.1788 190.157C54.093 189.032 55.0066 180.231 52.2191 170.498C51.3552 167.481 49.7695 164.521 47.9935 161.871L45.7394 165.09Z" fill="#F2F2F2"/>
</g>
<g id="Group 62">
<path id="Path 22" d="M142.24 45.2287H141.196V16.5811C141.196 12.1836 139.452 7.9663 136.348 4.85677C133.244 1.74723 129.034 0.00021032 124.644 0H64.0519C59.662 0 55.4518 1.74693 52.3476 4.85648C49.2434 7.96604 47.4995 12.1835 47.4995 16.5811V173.747C47.4995 175.925 47.9277 178.081 48.7595 180.093C49.5913 182.104 50.8106 183.932 52.3476 185.472C53.8846 187.012 55.7094 188.233 57.7176 189.066C59.7258 189.9 61.8782 190.329 64.0519 190.329H124.644C129.034 190.328 133.244 188.582 136.348 185.472C139.452 182.363 141.196 178.145 141.196 173.748V65.6206H142.24L142.24 45.2287Z" fill="#E6E6E6"/>
<path id="Path 23" d="M125.311 4.31227H117.403C117.767 5.20558 117.905 6.17477 117.807 7.13447C117.709 8.09417 117.376 9.01491 116.839 9.8156C116.302 10.6163 115.576 11.2723 114.726 11.7259C113.876 12.1796 112.928 12.4168 111.965 12.4168H77.2527C76.2896 12.4169 75.3413 12.1796 74.4913 11.726C73.6413 11.2724 72.9157 10.6163 72.3785 9.81553C71.8412 9.0148 71.5089 8.094 71.4106 7.13426C71.3123 6.17452 71.4512 5.2053 71.815 4.312H64.4282C61.1498 4.312 58.0057 5.61661 55.6875 7.93883C53.3692 10.261 52.0669 13.4106 52.0669 16.6947V173.633C52.0669 176.917 53.3692 180.067 55.6875 182.389C58.0057 184.711 61.1498 186.016 64.4282 186.016H125.311C128.59 186.016 131.734 184.711 134.052 182.389C136.37 180.067 137.673 176.917 137.673 173.633V16.6945C137.673 13.4105 136.37 10.261 134.052 7.93883C131.734 5.61668 128.59 4.31207 125.312 4.312L125.311 4.31227Z" fill="white"/>
<path id="Path 6" d="M87.1116 66.8282C87.1115 65.731 87.3999 64.6531 87.9478 63.7031C88.4957 62.7531 89.2837 61.9644 90.2326 61.4165C89.2844 60.868 88.2088 60.5792 87.1138 60.5792C86.0189 60.5791 84.9432 60.8678 83.9949 61.4162C83.0466 61.9646 82.2592 62.7534 81.7117 63.7032C81.1642 64.6531 80.876 65.7307 80.876 66.8275C80.876 67.9243 81.1642 69.0019 81.7117 69.9518C82.2592 70.9016 83.0466 71.6904 83.9949 72.2388C84.9432 72.7872 86.0189 73.0759 87.1138 73.0758C88.2088 73.0758 89.2844 72.787 90.2326 72.2385C89.284 71.6907 88.4962 70.9022 87.9485 69.9524C87.4008 69.0026 87.1125 67.925 87.1127 66.8282H87.1116Z" fill="#CCCCCC"/>
<path id="Path 7" d="M94.9528 66.8282C94.9526 65.731 95.241 64.6531 95.7889 63.7031C96.3368 62.7531 97.1249 61.9644 98.0738 61.4165C97.1256 60.868 96.05 60.5792 94.955 60.5792C93.8601 60.5791 92.7844 60.8678 91.8361 61.4162C90.8878 61.9646 90.1004 62.7534 89.5529 63.7032C89.0054 64.6531 88.7172 65.7307 88.7172 66.8275C88.7172 67.9243 89.0054 69.0019 89.5529 69.9518C90.1004 70.9016 90.8878 71.6904 91.8361 72.2388C92.7844 72.7872 93.8601 73.0759 94.955 73.0758C96.05 73.0758 97.1256 72.787 98.0738 72.2385C97.1252 71.6907 96.3374 70.9022 95.7897 69.9524C95.242 69.0026 94.9537 67.925 94.9539 66.8282H94.9528Z" fill="#CCCCCC"/>
<path id="Ellipse 1" d="M102.616 73.0765C106.061 73.0765 108.854 70.279 108.854 66.8282C108.854 63.3773 106.061 60.5798 102.616 60.5798C99.1715 60.5798 96.3788 63.3773 96.3788 66.8282C96.3788 70.279 99.1715 73.0765 102.616 73.0765Z" fill="#16B3B9"/>
<path id="Path 8" d="M113.041 86.3443H76.6867C76.3406 86.3438 76.0088 86.2059 75.7641 85.9608C75.5193 85.7156 75.3816 85.3832 75.3812 85.0365V48.6198C75.3819 48.2732 75.5197 47.9411 75.7644 47.6962C76.0091 47.4513 76.3408 47.3135 76.6867 47.3131H113.041C113.387 47.3135 113.719 47.4514 113.963 47.6966C114.208 47.9417 114.346 48.2741 114.346 48.6208V85.0352C114.346 85.3819 114.208 85.7143 113.963 85.9594C113.719 86.2046 113.387 86.3425 113.041 86.3429V86.3443ZM76.6867 47.8354C76.479 47.8356 76.2799 47.9184 76.1331 48.0655C75.9863 48.2126 75.9037 48.412 75.9035 48.62V85.0368C75.9037 85.2448 75.9863 85.4442 76.1331 85.5913C76.2799 85.7384 76.479 85.8212 76.6867 85.8214H113.041C113.248 85.8212 113.448 85.7384 113.594 85.5913C113.741 85.4442 113.824 85.2448 113.824 85.0368V48.62C113.824 48.412 113.741 48.2126 113.594 48.0655C113.448 47.9184 113.248 47.8356 113.041 47.8354H76.6867Z" fill="#CCCCCC"/>
<path id="Rectangle 1" d="M121.158 114.259H65.4025V114.782H121.158V114.259Z" fill="#CCCCCC"/>
<path id="Ellipse 2" d="M67.1632 110.993C68.1356 110.993 68.9239 110.203 68.9239 109.229C68.9239 108.255 68.1356 107.465 67.1632 107.465C66.1908 107.465 65.4025 108.255 65.4025 109.229C65.4025 110.203 66.1908 110.993 67.1632 110.993Z" fill="#16B3B9"/>
<path id="Rectangle 2" d="M121.158 131.897H65.4025V132.42H121.158V131.897Z" fill="#CCCCCC"/>
<path id="Ellipse 3" d="M67.1632 128.631C68.1356 128.631 68.9239 127.841 68.9239 126.867C68.9239 125.893 68.1356 125.103 67.1632 125.103C66.1908 125.103 65.4025 125.893 65.4025 126.867C65.4025 127.841 66.1908 128.631 67.1632 128.631Z" fill="#16B3B9"/>
<path id="Path 977" d="M120.138 151.981H102.517C102.213 151.981 101.921 151.86 101.706 151.644C101.491 151.429 101.37 151.136 101.369 150.831V144.646C101.37 144.341 101.491 144.049 101.706 143.833C101.921 143.617 102.213 143.496 102.517 143.496H120.138C120.442 143.496 120.734 143.617 120.949 143.833C121.164 144.049 121.285 144.341 121.285 144.646V150.831C121.285 151.136 121.164 151.429 120.949 151.644C120.734 151.86 120.442 151.981 120.138 151.981Z" fill="#16B3B9"/>
<path id="Ellipse 7" d="M72.9067 110.993C73.8791 110.993 74.6674 110.203 74.6674 109.229C74.6674 108.255 73.8791 107.465 72.9067 107.465C71.9343 107.465 71.1461 108.255 71.1461 109.229C71.1461 110.203 71.9343 110.993 72.9067 110.993Z" fill="#16B3B9"/>
<path id="Ellipse 8" d="M78.6503 110.993C79.6226 110.993 80.4109 110.203 80.4109 109.229C80.4109 108.255 79.6226 107.465 78.6503 107.465C77.6779 107.465 76.8896 108.255 76.8896 109.229C76.8896 110.203 77.6779 110.993 78.6503 110.993Z" fill="#16B3B9"/>
<path id="Ellipse 9" d="M72.9067 128.631C73.8791 128.631 74.6674 127.841 74.6674 126.867C74.6674 125.893 73.8791 125.103 72.9067 125.103C71.9343 125.103 71.1461 125.893 71.1461 126.867C71.1461 127.841 71.9343 128.631 72.9067 128.631Z" fill="#16B3B9"/>
<path id="Ellipse 10" d="M78.6503 128.631C79.6226 128.631 80.4109 127.841 80.4109 126.867C80.4109 125.893 79.6226 125.103 78.6503 125.103C77.6779 125.103 76.8896 125.893 76.8896 126.867C76.8896 127.841 77.6779 128.631 78.6503 128.631Z" fill="#16B3B9"/>
</g>
<path id="Path 88" d="M189.27 191H0.730446C0.32696 191 0 190.856 0 190.678C0 190.5 0.32696 190.356 0.730446 190.356H189.27C189.673 190.356 190 190.5 190 190.678C190 190.856 189.673 191 189.27 191Z" fill="#E6E6E6"/>
<g id="Group 61">
<path id="Path 92" d="M165.129 119.722L160.696 128.514L147.443 134.55C146.027 136.946 141.529 137.13 141.202 135.581C140.835 133.842 146.665 131.044 146.665 131.044L157.751 123.533L158.721 117.066L165.129 119.722Z" fill="#FFB9B9"/>
<path id="Path 93" d="M164.606 178.718L165.424 185.27L160.682 185.598L160.192 178.719L164.606 178.718Z" fill="#FFB9B9"/>
<path id="Path 94" d="M163.952 184.287C164.376 183.838 164.767 183.359 165.123 182.854C165.802 181.912 166.405 186.744 166.405 186.744C166.405 186.744 167.059 188.709 166.896 189.692C166.732 190.675 162.972 190.675 162.317 190.512C161.663 190.348 158.393 190.512 158.393 190.512H153.488C149.237 188.546 153.488 187.236 153.488 187.236C154.796 187.072 159.211 182.977 159.211 182.977L160.192 181.176C160.846 181.012 161.5 183.469 161.5 183.469L163.952 184.287Z" fill="#090814"/>
<path id="Path 95" d="M176.87 178.8L177.688 185.352L172.946 185.68L172.455 178.8H176.87Z" fill="#FFB9B9"/>
<path id="Path 96" d="M176.215 184.369C176.639 183.92 177.03 183.441 177.385 182.936C178.065 181.994 178.668 186.826 178.668 186.826C178.668 186.826 179.322 188.628 179.158 189.61C178.995 190.593 175.234 190.593 174.58 190.43C173.926 190.267 170.656 190.594 170.656 190.594H165.751C161.5 188.628 165.751 187.318 165.751 187.318C167.059 187.154 171.473 183.059 171.473 183.059L172.455 181.258C173.109 181.094 173.763 183.551 173.763 183.551L176.215 184.369Z" fill="#090814"/>
<path id="Path 97" d="M171.473 136.543C172.127 137.362 171.8 140.146 171.8 140.146C171.8 140.146 172.944 149.155 172.454 149.974C171.963 150.792 172.781 151.448 173.272 152.594C173.763 153.741 174.253 156.525 174.253 156.525C177.033 158.818 176.869 169.301 176.869 169.301L177.85 178.637C177.523 179.619 172.945 179.783 172.291 179.619C171.637 179.456 169.675 164.715 169.675 164.715L165.26 156.361C165.26 156.361 165.587 178.636 165.587 179.619C165.587 180.602 161.173 180.111 160.191 180.111C159.21 180.111 159.21 163.732 159.21 163.732L158.229 159.473L152.997 139.983V137.689L153.815 136.542C153.815 136.542 170.819 135.724 171.473 136.543Z" fill="#090814"/>
<path id="Ellipse 11" d="M164.28 99.3633C167.079 99.3633 169.348 97.09 169.348 94.2857C169.348 91.4815 167.079 89.2082 164.28 89.2082C161.48 89.2082 159.211 91.4815 159.211 94.2857C159.211 97.09 161.48 99.3633 164.28 99.3633Z" fill="#FFB9B9"/>
<path id="Path 98" d="M161.745 96.6603C162.773 98.9522 162.164 102.153 160.109 105.669L168.448 101.738L167.14 100.591L167.467 97.3156L161.745 96.6603Z" fill="#FFB9B9"/>
<path id="Path 99" d="M161.745 101.902C160.653 102.552 159.999 103.747 159.624 104.963C158.93 107.214 158.512 109.541 158.38 111.894L157.984 118.936L153.079 137.608C157.33 141.211 159.782 140.392 165.505 137.444C171.229 134.496 171.882 138.427 171.882 138.427C171.882 138.427 172.373 138.263 171.882 137.772C171.392 137.281 171.882 137.772 172.373 137.281C172.863 136.789 172.373 137.281 172.209 136.789C172.045 136.298 172.209 136.625 172.373 136.462C172.536 136.298 171.719 134.823 171.719 134.823L173.027 122.539L174.663 105.177C172.701 102.72 167.142 100.591 167.142 100.591L162.072 104.194C160.436 104.85 161.745 102.229 161.745 102.229L161.745 101.902Z" fill="#16B3B9"/>
<path id="Path 100" d="M177.359 115.578L178.013 125.405L169.674 137.362C169.674 140.146 168.203 140.802 168.203 140.802C167.646 139.91 167.154 138.98 166.732 138.017C165.914 136.215 167.222 134.741 167.222 134.741L172.945 122.621L170.492 116.561L177.359 115.578Z" fill="#FFB9B9"/>
<path id="Path 101" d="M174.581 105.26C177.361 106.242 177.851 116.889 177.851 116.889C174.581 115.087 170.657 118.035 170.657 118.035C170.657 118.035 169.839 115.251 168.858 111.647C168.562 110.634 168.527 109.562 168.756 108.531C168.984 107.5 169.47 106.543 170.167 105.751C170.167 105.751 171.801 104.277 174.581 105.26Z" fill="#16B3B9"/>
<path id="Path 102" d="M168.939 95.8414C168.294 95.3244 167.413 96.2644 167.413 96.2644L166.897 91.6103C166.897 91.6103 163.671 91.9981 161.606 91.481C159.541 90.964 159.219 93.3555 159.219 93.3555C159.112 92.39 159.091 91.417 159.154 90.4477C159.283 89.2846 160.961 88.1215 163.929 87.3451C166.897 86.5687 168.446 89.9307 168.446 89.9307C170.51 90.964 169.584 96.3587 168.939 95.8414Z" fill="#090814"/>
</g>
</g>
</g>
<defs>
<clipPath id="clip0_99_571">
<rect width="190" height="191" fill="white"/>
</clipPath>
</defs>
</svg>
