<svg width="45" height="53" viewBox="0 0 45 53" fill="none" xmlns="http://www.w3.org/2000/svg">
<path id="Vector" d="M7.76902 2.10485L7.76902 2.10486L7.77251 2.10699L41.5185 22.7296C41.5192 22.73 41.5198 22.7303 41.5205 22.7307C42.7563 23.4922 43.5 24.8153 43.5 26.2568C43.5 27.7038 42.7519 29.0336 41.5251 29.78L41.5225 29.7815L7.77532 50.4048C7.77484 50.4051 7.77435 50.4054 7.77387 50.4057C6.49801 51.1808 4.89828 51.2117 3.6069 50.4848C2.30816 49.7537 1.5 48.3776 1.5 46.8818V5.63176C1.5 4.13591 2.30816 2.75981 3.6069 2.02873C4.90443 1.29833 6.5016 1.32556 7.76902 2.10485Z" stroke="white" stroke-width="3"/>
</svg>
